<?xml version="1.0" standalone="no"?>
<!DOCTYPE svg PUBLIC "-//W3C//DTD SVG 20010904//EN"
 "http://www.w3.org/TR/2001/REC-SVG-20010904/DTD/svg10.dtd">
<svg version="1.0" xmlns="http://www.w3.org/2000/svg"
 width="280.000000pt" height="280.000000pt" viewBox="0 0 280.000000 280.000000"
 preserveAspectRatio="xMidYMid meet">

<g transform="translate(0.000000,280.000000) scale(0.100000,-0.100000)"
fill="#000000" stroke="none">
<path d="M858 2677 c-7 -8 -51 -56 -98 -107 -47 -52 -103 -113 -125 -137 l-40
-43 -105 20 c-58 11 -140 26 -183 35 -43 8 -84 15 -91 15 -9 0 16 -89 74 -262
165 -497 161 -483 182 -648 54 -434 70 -564 82 -666 l14 -111 107 -129 c58
-71 117 -140 129 -154 12 -14 88 -104 167 -200 80 -96 153 -183 163 -193 16
-15 43 -17 266 -17 l249 0 83 101 c187 227 393 477 432 524 23 28 45 55 49 62
4 7 16 81 27 165 11 84 31 239 45 343 14 105 32 244 40 310 15 117 31 172 141
480 14 39 32 90 40 115 8 25 19 54 23 65 25 58 72 207 68 212 -3 3 -79 -9
-169 -26 -90 -18 -174 -34 -188 -37 -21 -4 -39 10 -115 92 -49 53 -113 120
-140 150 l-51 54 -531 0 c-429 0 -534 -3 -545 -13z m332 -221 c0 -12 -162
-336 -170 -341 -10 -6 -199 26 -277 46 -40 11 -54 23 -35 31 6 3 71 86 172
220 l35 48 138 0 c75 0 137 -2 137 -4z m402 -48 c9 -29 31 -91 48 -138 17 -47
40 -111 50 -142 10 -32 24 -66 29 -77 9 -15 3 -40 -28 -118 -183 -465 -200
-516 -191 -561 5 -20 18 -109 30 -197 12 -88 23 -172 26 -187 l6 -28 -172 0
-172 0 6 28 c15 68 67 386 68 415 0 27 -30 125 -61 192 -5 11 -28 70 -51 130
-22 61 -45 119 -49 130 -64 153 -72 187 -51 223 6 9 21 49 34 87 12 39 40 121
61 183 l39 112 181 0 180 0 17 -52z m303 25 c11 -14 59 -78 108 -142 83 -110
86 -116 65 -124 -29 -11 -298 -60 -302 -56 -6 9 -166 338 -166 343 0 4 62 6
138 6 137 0 137 0 157 -27z m-1210 -308 c130 -24 274 -53 302 -61 11 -3 73
-123 73 -140 0 -3 7 -20 15 -37 44 -95 151 -362 146 -365 -10 -4 -185 60 -567
205 l-70 27 -22 96 c-12 52 -33 144 -47 204 -14 60 -25 110 -25 112 0 2 12 -1
28 -6 15 -5 90 -21 167 -35z m1615 4 c-9 -28 -68 -278 -85 -355 -3 -15 -26
-28 -92 -53 -49 -18 -104 -38 -123 -46 -136 -54 -414 -155 -428 -155 -8 0 -7
8 3 28 8 15 51 115 96 222 124 300 124 300 151 300 13 0 48 6 78 14 30 7 111
24 180 36 69 12 148 28 175 34 28 7 51 12 52 11 1 -1 -2 -17 -7 -36z m-1562
-586 l3 -99 82 -44 c45 -24 96 -51 114 -60 l32 -15 1 -237 c0 -131 -3 -238 -8
-238 -4 0 -25 17 -47 38 -22 21 -80 71 -129 111 -48 41 -107 91 -130 112 -22
21 -44 39 -48 39 -5 0 -8 124 -8 275 l0 274 68 -29 67 -28 3 -99z m1448 -379
c-2 -6 -78 -73 -168 -149 -89 -76 -171 -145 -180 -153 -17 -14 -18 -3 -18 226
0 184 3 241 13 244 6 2 58 28 114 58 l102 55 3 99 3 99 65 28 65 27 3 -261 c1
-144 0 -267 -2 -273z m-990 309 l36 -18 -5 -85 c-3 -47 -15 -165 -27 -264
l-20 -178 33 -37 c86 -95 78 -91 184 -91 l96 0 60 63 59 62 -6 50 c-3 28 -11
95 -16 150 -6 55 -15 124 -20 154 -6 30 -10 82 -10 116 l0 62 40 18 c22 10 42
16 44 14 3 -2 29 -47 60 -98 l56 -95 0 -353 c0 -194 -3 -353 -6 -353 -3 0 -26
19 -50 43 -25 23 -52 45 -59 50 -22 12 -273 20 -389 12 l-110 -7 -58 -56 -58
-55 0 359 0 359 28 47 c15 26 40 70 56 97 16 28 33 51 37 51 5 0 25 -8 45 -17z
m409 -983 l59 -60 -54 -55 -54 -55 -161 0 -161 0 -53 54 -54 55 24 28 c13 15
38 43 54 60 l30 33 155 0 156 0 59 -60z"/>
</g>
</svg>
