<?xml version="1.0" standalone="no"?>
<!DOCTYPE svg PUBLIC "-//W3C//DTD SVG 20010904//EN"
 "http://www.w3.org/TR/2001/REC-SVG-20010904/DTD/svg10.dtd">
<svg version="1.0" xmlns="http://www.w3.org/2000/svg"
 width="920.000000pt" height="512.000000pt" viewBox="0 0 920.000000 512.000000"
 preserveAspectRatio="xMidYMid meet">

<g transform="translate(0.000000,512.000000) scale(0.100000,-0.100000)"
fill="#000000" stroke="none">
<path d="M6612 4340 c0 -14 2 -19 5 -12 2 6 2 18 0 25 -3 6 -5 1 -5 -13z"/>
<path d="M6620 2550 l-5 -1765 -26 -55 c-33 -70 -89 -126 -159 -159 l-55 -26
-1755 -2 c-1245 -2 -1767 0 -1795 8 -62 17 -107 39 -145 73 l-35 31 34 -37
c18 -20 57 -47 85 -60 l51 -23 1785 0 1785 0 56 26 c69 33 124 88 158 159 l26
55 3 1420 c1 781 1 1578 0 1770 -2 193 -5 -444 -8 -1415z"/>
</g>
</svg>
