<?xml version="1.0" encoding="utf-8"?>
<!-- Generator: Adobe Illustrator 16.0.1, SVG Export Plug-In . SVG Version: 6.00 Build 0)  -->
<!DOCTYPE svg PUBLIC "-//W3C//DTD SVG 1.1//EN" "http://www.w3.org/Graphics/SVG/1.1/DTD/svg11.dtd">
<svg version="1.1" id="Layer_1" xmlns="http://www.w3.org/2000/svg" xmlns:xlink="http://www.w3.org/1999/xlink" x="0px" y="0px"
	 width="256px" height="256px" viewBox="0 0 256 256" enable-background="new 0 0 256 256" xml:space="preserve">
<path fill="#FFFFFF" d="M86.718,254.892c-7.65-0.017-14.53-2.742-19.542-7.13l0,0c-4.929-4.263-7.757-9.434-9.513-13.963l0,0
	c-3.404-8.932-3.437-17.045-3.486-19.271l0,0v-0.108c0-0.169,0.003-0.323,0.005-0.438l0,0v-3.854
	c-18.224-9.482-30.66-28.535-30.677-50.508l0,0V59.2C23.52,27.752,48.989,2.284,80.44,2.272l0,0h87.701
	c31.447,0.012,56.914,25.48,56.926,56.931l0,0v99.886c0.199,0.356,0.396,0.718,0.594,1.083l0,0
	c4.031-2.082,9.014-0.738,11.447,3.114l0,0c2.457,3.896,1.48,9.042-2.238,11.765l0,0c-0.205,0.145-2.588,1.89-6.139,3.855l0,0
	c-2.4,1.296-5.258,2.74-8.561,3.808l0,0c-8.854,19.935-28.809,33.814-52.031,33.836l0,0l-46.648-0.002
	c-0.478,15.074-6.83,26.28-15.341,32.138l0,0c-8.388,5.922-16.708,6.177-18.897,6.211l0,0h-0.141c-0.037,0-0.075,0-0.123,0l0,0
	C86.923,254.896,86.839,254.895,86.718,254.892L86.718,254.892z"/>
<radialGradient id="SVGID_1_" cx="125.4937" cy="55.0098" r="127.0031" gradientUnits="userSpaceOnUse">
	<stop  offset="0" style="stop-color:#FAA634"/>
	<stop  offset="1" style="stop-color:#FFCF82"/>
</radialGradient>
<path fill="url(#SVGID_1_)" d="M153.822,88.494c0,0,0-29.29,0-29.292c0-18.98-15.387-34.366-34.366-34.366H80.441
	c-18.98,0-34.365,15.386-34.365,34.366v100.419c0,18.979,15.385,34.365,34.365,34.365h39.015c18.979,0,34.366-15.386,34.366-34.365
	v-39.095l14.246-7.392L153.822,88.494z"/>
<circle fill="#FFFFFF" cx="114.818" cy="86.517" r="17.682"/>
<g>
	<path fill="#94AEBD" d="M168.139,24.836h-14.965c8.902,8.737,14.432,20.899,14.434,34.364v25.592l19.623,33.934l-19.623,10.18
		v30.715c-0.002,13.466-5.531,25.629-14.436,34.365h14.967c18.98,0,34.367-15.386,34.367-34.365V59.202
		C202.506,40.222,187.119,24.836,168.139,24.836z"/>
</g>
<path fill="#2D4251" d="M218.189,164.812c-0.635-1.195-1.283-2.349-1.941-3.472c0.021-0.573,0.045-1.144,0.045-1.719V59.203
	c-0.008-26.603-21.555-48.148-48.154-48.156H80.44C53.836,11.054,32.292,32.6,32.283,59.203v100.418
	c0.006,20.432,12.725,37.868,30.677,44.866v9.515c-0.002,0.1-0.006,0.239-0.006,0.418c0.024,1.949,0.115,8.954,2.905,16.245
	c1.412,3.639,3.556,7.436,7.055,10.46c3.453,3.023,8.333,5.012,13.946,4.994c0.063,0.003,0.149,0.003,0.252,0.003
	c1.595-0.024,7.719-0.196,13.986-4.61c6.335-4.396,11.761-13.337,11.645-27.479v-6.258h6.712c0.01,0,0.02,0,0.029,0l48.654,0.002
	c21.115-0.01,39.031-13.591,45.533-32.494c7.49-1.072,16.016-7.313,16.016-7.313C221.475,172.394,218.189,164.812,218.189,164.812z
	 M101.459,214.033c-0.115,11.623-3.728,15.902-6.909,18.292c-3.247,2.37-7.118,2.541-7.438,2.515v0.002l-0.08-0.002H86.95
	c-3.223-0.042-5.041-0.908-6.675-2.265c-2.419-2.013-4.184-5.921-5.057-9.804c-0.9-3.847-0.985-7.448-0.979-8.352
	c-0.002-0.061-0.001-0.107,0-0.135l0.005-0.109v-6.814c2.03,0.262,4.095,0.411,6.197,0.414h17.57h3.451L101.459,214.033z
	 M119.456,193.986H80.441c-2.118,0-4.187-0.201-6.198-0.568V89.774h11.797c1.625,14.462,13.877,25.698,28.778,25.705
	c16.001-0.007,28.955-12.964,28.962-28.961c-0.008-16.002-12.965-28.96-28.962-28.967C101.602,57.559,90.471,66.4,86.99,78.492
	H62.96v110.715c-10.104-5.984-16.884-16.989-16.884-29.586V59.202c0-18.98,15.385-34.366,34.365-34.366h39.015
	c18.979,0,34.366,15.386,34.366,34.366c0,0.002,0,29.292,0,29.292l14.246,24.641l-14.246,7.392v5.528
	c-11.383,1.517-35.338,8.377-51.438,38.757c0,0-3.286,7.582-11.498,3.158c0,0,17.246,12.636,24.228,5.054
	c6.981-7.58,12.73-13.896,12.73-13.896l-3.286,8.843c0,0,10.678-1.264,16.838-6.948c6.16-5.688,5.338-12.004,5.338-12.004
	l2.053,9.475c0,0,2.404-0.619,5.035-2.306v3.435C153.822,178.601,138.436,193.986,119.456,193.986z M97.136,86.517
	c0-9.767,7.918-17.682,17.682-17.682c9.767,0,17.682,7.916,17.682,17.682c0,9.764-7.916,17.682-17.682,17.682
	C105.054,104.199,97.136,96.281,97.136,86.517z M168.139,193.986h-14.967c8.904-8.736,14.434-20.899,14.436-34.365v-2.913
	c2.273,1.296,4.178,1.784,4.178,1.784l2.053-9.475c0,0-0.82,6.316,5.34,12.004c6.16,5.685,16.838,6.948,16.838,6.948l-3.287-8.843
	c0,0,3.621,3.98,8.602,9.406C197.406,183.191,184.035,193.986,168.139,193.986z M202.506,143.693
	c-11.062-10.589-22.748-14.985-31.018-16.799l15.742-8.168l-19.623-33.934V59.2c-0.002-13.465-5.531-25.627-14.434-34.364h14.965
	c18.98,0,34.367,15.386,34.367,34.366V143.693z M178.885,82.549c0,4.037,4.211,7.313,9.402,7.313c5.193,0,9.404-3.276,9.404-7.313
	c0-4.035-4.211-7.309-9.404-7.309C183.096,75.241,178.885,78.514,178.885,82.549z"/>
</svg>
